<mxfile host="65bd71144e">
    <diagram id="nApY0GXeao1E4CzejnQw" name="Page-1">
        <mxGraphModel dx="689" dy="1589" grid="1" gridSize="10" guides="1" tooltips="1" connect="1" arrows="1" fold="1" page="1" pageScale="1" pageWidth="850" pageHeight="1100" math="0" shadow="0">
            <root>
                <mxCell id="0"/>
                <mxCell id="1" parent="0"/>
                <mxCell id="2" value="&lt;h2 style=&quot;color: rgb(212, 212, 212); line-height: 19px; font-size: 36px;&quot;&gt;Structure of video&lt;/h2&gt;" style="text;html=1;strokeColor=none;fillColor=none;align=center;verticalAlign=middle;whiteSpace=wrap;rounded=0;" parent="1" vertex="1">
                    <mxGeometry x="130" width="530" height="60" as="geometry"/>
                </mxCell>
                <mxCell id="3" value="" style="endArrow=none;html=1;fontSize=36;entryX=1;entryY=1;entryDx=0;entryDy=0;" parent="1" target="2" edge="1">
                    <mxGeometry width="50" height="50" relative="1" as="geometry">
                        <mxPoint x="70" y="60" as="sourcePoint"/>
                        <mxPoint x="380" y="150" as="targetPoint"/>
                    </mxGeometry>
                </mxCell>
                <mxCell id="22" value="First half lecture blah blah&lt;br&gt;&lt;br&gt;Second half implementation and application of blah blah&lt;br&gt;&lt;br&gt;Most likely there will be time stamps" style="text;html=1;strokeColor=none;fillColor=none;align=center;verticalAlign=middle;whiteSpace=wrap;rounded=0;labelBackgroundColor=none;fontFamily=Helvetica;fontSize=36;" parent="1" vertex="1">
                    <mxGeometry x="130" y="100" width="530" height="285" as="geometry"/>
                </mxCell>
            </root>
        </mxGraphModel>
    </diagram>
</mxfile>